<svg width="62" height="62" viewBox="0 0 62 62" fill="none" xmlns="http://www.w3.org/2000/svg">
<path d="M25.0654 18.0906L30.865 12.8794L36.7232 18.7164V29.4982L27.1989 39.0287L29.7786 41.5728L36.7232 34.4891V43.6166L30.865 49.1431L25.0654 43.7834L25.2531 32.9808L34.2415 24.1385L31.4469 21.6461L25.0654 27.7462V18.0906Z" fill="#C19D62"/>
<path d="M43.7302 43.7002L43.6887 35.9216L49.1733 30.8955L43.6887 25.682L43.5844 18.1951L36.7231 18.0908L36.8014 29.514L33.569 32.7464L36.8482 33.0017L36.9107 43.7002H43.7302Z" fill="#C19D62"/>
<path d="M18.0218 25.8487V25.7654L18.0166 18.0908H24.8987L24.9035 18.745L24.9821 28.9143L28.7225 29.2161L24.9821 32.96L25.0655 38.3934L24.9143 43.7002L18.1208 43.6585L17.954 34.5867L17.1095 35.3063L12.683 30.8797" fill="#C19D62"/>
<path d="M50.2788 11.5401C50.2876 11.4941 50.2453 11.4539 50.2003 11.4671C50.1905 11.4702 50.181 11.4735 50.1718 11.4763C49.8756 11.5658 49.5789 11.6544 49.2836 11.747C48.8961 11.8687 48.5074 11.987 48.1239 12.1204C47.8054 12.231 47.4936 12.3613 47.1793 12.4837C46.3915 12.7902 45.63 13.1556 44.8655 13.5146C44.3458 13.7586 43.8292 14.0091 43.321 14.2752C42.8734 14.5094 42.4357 14.762 41.9985 15.0156C41.2204 15.4669 40.4601 15.9457 39.7103 16.4417C39.6692 16.4691 39.6244 16.4913 39.5846 16.5202C39.4558 16.6127 39.3194 16.5996 39.1861 16.5423C38.9236 16.4291 38.6643 16.3086 38.4037 16.1909C38.1511 16.0769 37.8986 15.9625 37.6459 15.8479C37.6334 15.8423 37.6207 15.8365 37.6085 15.8308C37.4816 15.7707 37.4237 15.621 37.476 15.4907C37.5282 15.3614 37.5821 15.2323 37.6356 15.1032C38.0034 14.2087 38.3716 13.3144 38.7395 12.4199C38.7775 12.3276 38.8286 12.2436 38.8927 12.1673C38.9216 12.1333 38.9565 12.1127 39.0007 12.1026C39.6879 11.9466 40.3752 11.7896 41.0626 11.6326C41.9406 11.4321 42.8183 11.232 43.6963 11.0315C44.5908 10.8273 45.4856 10.6231 46.3803 10.4186C47.2748 10.2145 48.1696 10.01 49.0641 9.80581C50.0062 9.59093 50.9477 9.37479 51.8904 9.16203C52.0654 9.12249 52.2386 9.07435 52.4054 9.00906C52.5353 8.95817 52.6436 8.99405 52.7236 9.10348C52.7769 9.17615 52.7778 9.25524 52.7543 9.33709C52.7466 9.36376 52.7356 9.38981 52.7245 9.41556C52.6408 9.60839 52.6068 9.81502 52.5596 10.0177C52.2638 11.2841 51.9685 12.5505 51.6732 13.8169C51.422 14.8951 51.1708 15.973 50.9197 17.0511C50.6115 18.3739 50.3027 19.6972 49.9943 21.0199C49.864 21.5789 49.731 22.137 49.6059 22.6972C49.5832 22.7986 49.5274 22.8612 49.447 22.9108C49.3925 22.9446 49.3352 22.9758 49.2757 22.9997C48.2422 23.4203 47.2082 23.84 46.1746 24.2596C46.1142 24.2842 46.0541 24.3069 45.9885 24.2742C45.9446 24.2524 45.9091 24.2241 45.8885 24.1784C45.8189 24.0237 45.7475 23.8694 45.6779 23.7143C45.5055 23.3299 45.3352 22.9443 45.161 22.5603C45.1205 22.4709 45.108 22.3786 45.1162 22.2839C45.1196 22.2453 45.1373 22.2045 45.1588 22.1711C45.2769 21.9863 45.3968 21.8026 45.5179 21.6195C45.9798 20.9219 46.4139 20.2067 46.8382 19.4856C47.3216 18.6637 47.7557 17.8164 48.1671 16.9568C48.4606 16.344 48.7535 15.7308 49.0249 15.1078C49.1699 14.7749 49.2975 14.4343 49.4339 14.0977C49.6807 13.4892 49.8714 12.862 50.066 12.2357C50.1344 12.0161 50.2028 11.7963 50.2698 11.5765C50.2736 11.5652 50.2763 11.5526 50.2788 11.5401ZM51.7364 9.66021C51.7347 9.65591 51.7332 9.65162 51.7313 9.64764C51.7126 9.65071 51.6939 9.65253 51.6754 9.65683C50.9906 9.81409 50.3057 9.97136 49.6209 10.1286C48.4606 10.3953 47.3003 10.662 46.1398 10.9288C45.2309 11.1375 44.3216 11.3463 43.4127 11.5551C42.3568 11.7979 41.3014 12.0407 40.2459 12.2835C39.9316 12.3558 39.6176 12.4294 39.3032 12.4996C39.2403 12.5137 39.203 12.545 39.1787 12.6051C39.1015 12.7963 39.0193 12.9858 38.939 13.1759C38.6257 13.9184 38.3123 14.6612 37.9991 15.4037C37.9969 15.4088 37.9948 15.4144 37.9926 15.4196C37.9804 15.4505 37.9942 15.4862 38.0244 15.4999C38.0247 15.4999 38.0247 15.4999 38.0251 15.5003C38.4592 15.6982 38.8939 15.8955 39.3271 16.0953C39.3761 16.118 39.4105 16.1162 39.4547 16.0842C39.8535 15.7946 40.2677 15.5276 40.6885 15.2719C41.1902 14.9671 41.7003 14.6759 42.2067 14.3791C42.8637 13.9941 43.5407 13.6468 44.2235 13.3102C45.0546 12.9003 45.9032 12.5284 46.7573 12.1697C47.5366 11.8423 48.3352 11.5676 49.1417 11.316C49.5702 11.1823 50.0019 11.0572 50.432 10.9285C50.4637 10.919 50.4902 10.9052 50.5142 10.8812C50.8811 10.5146 51.2487 10.1492 51.6159 9.78314C51.6558 9.74297 51.6959 9.70129 51.7364 9.66021ZM46.1898 23.7033C46.2036 23.7336 46.2388 23.7483 46.2698 23.7358C46.2729 23.7345 46.276 23.7333 46.2791 23.7321C47.2156 23.3418 48.1522 22.9509 49.0896 22.5625C49.1531 22.5362 49.1843 22.4973 49.1991 22.4335C49.3032 21.9835 49.409 21.5335 49.5145 21.0837C49.7349 20.1444 49.9557 19.2048 50.1764 18.2655C50.3888 17.3617 50.6013 16.4579 50.8135 15.5542C51.023 14.6609 51.2319 13.7672 51.4413 12.8739C51.6601 11.9407 51.8793 11.0079 52.098 10.075C52.1017 10.0587 52.1034 10.0422 52.1061 10.0259C52.0805 10.0351 52.0638 10.0502 52.0476 10.0661C51.662 10.449 51.2766 10.8322 50.8907 11.2145C50.8524 11.2522 50.8241 11.2991 50.8085 11.3503C50.6604 11.8359 50.5154 12.3227 50.3603 12.8062C50.0942 13.6354 49.7993 14.4546 49.4462 15.2513C49.2561 15.6799 49.0725 16.1109 48.8752 16.5361C48.6794 16.9596 48.4743 17.3789 48.2664 17.7965C47.8734 18.5861 47.4407 19.354 46.9909 20.1128C46.5488 20.8587 46.0987 21.5991 45.5911 22.3032C45.5905 22.3038 45.5901 22.3047 45.5895 22.3054C45.5776 22.3228 45.5767 22.3455 45.5855 22.3645C45.7874 22.8105 45.9878 23.255 46.1898 23.7033Z" fill="white"/>
<path d="M11.4114 11.5773C11.4785 11.7974 11.5469 12.0169 11.6153 12.2364C11.8099 12.8627 12.0007 13.49 12.2475 14.0985C12.3838 14.4351 12.5114 14.7757 12.6564 15.1086C12.9276 15.7316 13.2207 16.3447 13.5142 16.9575C13.9254 17.8172 14.3596 18.6644 14.8431 19.4863C15.2674 20.2077 15.7015 20.9226 16.1634 21.6204C16.2845 21.8034 16.4044 21.987 16.5224 22.1719C16.5435 22.2053 16.5616 22.2457 16.565 22.2846C16.5733 22.3793 16.561 22.4717 16.5202 22.5612C16.3461 22.945 16.1756 23.3304 16.0034 23.7151C15.9338 23.8703 15.8627 24.0241 15.7928 24.1792C15.7722 24.2252 15.7367 24.2531 15.6929 24.2749C15.6272 24.3077 15.5671 24.285 15.5068 24.2604C14.4731 23.8408 13.439 23.4213 12.4056 23.0005C12.3461 22.9762 12.2888 22.9453 12.2342 22.9115C12.1542 22.8619 12.0981 22.7994 12.0754 22.6979C11.9503 22.1378 11.8173 21.5796 11.687 21.0207C11.3786 19.6979 11.0699 18.3747 10.7615 17.0519C10.5101 15.9738 10.259 14.8959 10.008 13.8177C9.71272 12.5513 9.4178 11.2846 9.12167 10.0184C9.07414 9.8158 9.04043 9.60917 8.95674 9.41635C8.9457 9.39059 8.93467 9.36485 8.92701 9.33787C8.9034 9.25601 8.90432 9.17692 8.95767 9.10426C9.03767 8.99513 9.14588 8.95926 9.27587 9.00985C9.44295 9.07515 9.61615 9.12327 9.7909 9.16282C10.7333 9.37558 11.675 9.5917 12.617 9.80661C13.5117 10.0108 14.4065 10.2153 15.301 10.4194C16.1956 10.6236 17.0905 10.8278 17.9851 11.0322C18.8631 11.2327 19.7407 11.4332 20.6187 11.6334C21.306 11.7904 21.9934 11.9473 22.6807 12.1034C22.7248 12.1135 22.76 12.1337 22.7886 12.1681C22.8527 12.2444 22.9038 12.3284 22.9418 12.4207C23.3097 13.3152 23.6779 14.2095 24.0458 15.104C24.0989 15.2331 24.1531 15.3618 24.2051 15.4916C24.2576 15.6218 24.2 15.7717 24.0728 15.8315C24.0603 15.8374 24.0479 15.8431 24.0354 15.8487C23.7827 15.9629 23.5301 16.0777 23.2776 16.1917C23.017 16.3094 22.7576 16.43 22.4952 16.543C22.3619 16.6003 22.2254 16.6136 22.0967 16.5209C22.0566 16.4922 22.0121 16.4698 21.971 16.4425C21.221 15.9464 20.4606 15.4677 19.6828 15.0164C19.2456 14.7628 18.8079 14.5102 18.3602 14.276C17.8519 14.0099 17.3355 13.7594 16.8158 13.5154C16.0512 13.1564 15.2898 12.791 14.5018 12.4844C14.1874 12.3621 13.8756 12.2321 13.5573 12.1212C13.1738 11.9878 12.7851 11.8695 12.3976 11.7478C12.1024 11.6549 11.8059 11.5666 11.5095 11.4771C11.5 11.4743 11.4908 11.4709 11.481 11.4679C11.4362 11.4544 11.3939 11.4945 11.4025 11.5408C11.4046 11.5528 11.4074 11.5654 11.4114 11.5773ZM10.0659 9.78361C10.4332 10.1496 10.801 10.5154 11.1677 10.8817C11.1916 10.9056 11.2183 10.9194 11.2498 10.9289C11.6802 11.0574 12.1115 11.1825 12.5401 11.3164C13.3468 11.5681 14.1454 11.8431 14.9247 12.1702C15.7787 12.5289 16.6272 12.9008 17.4584 13.3106C18.141 13.6472 18.8183 13.9946 19.4753 14.3796C19.9817 14.6764 20.4915 14.9676 20.9934 15.2723C21.4143 15.528 21.8285 15.7951 22.2272 16.0846C22.2714 16.1166 22.3057 16.1188 22.3548 16.0958C22.788 15.8959 23.2227 15.6987 23.6567 15.5007C23.657 15.5007 23.657 15.5007 23.6573 15.5004C23.6878 15.4867 23.7015 15.451 23.6893 15.4201C23.6871 15.4148 23.685 15.4094 23.6828 15.4042C23.3695 14.6613 23.0563 13.9189 22.7429 13.1764C22.6626 12.9863 22.5804 12.7968 22.5032 12.6055C22.479 12.5451 22.4416 12.5142 22.3787 12.5001C22.0641 12.4296 21.7503 12.356 21.436 12.284C20.3806 12.0411 19.3247 11.798 18.2692 11.5555C17.3602 11.3465 16.451 11.138 15.542 10.9292C14.3817 10.6625 13.2214 10.3958 12.061 10.1291C11.3761 9.97184 10.6913 9.81427 10.0064 9.65731C9.98801 9.65302 9.96933 9.65118 9.95062 9.6481C9.94879 9.6524 9.94724 9.65669 9.9454 9.66068C9.98496 9.70145 10.0251 9.74315 10.0659 9.78361ZM16.0947 22.3643C16.1034 22.345 16.1024 22.3223 16.0909 22.3052C16.0902 22.3046 16.0899 22.3036 16.0893 22.303C15.5815 21.5992 15.1315 20.8585 14.6895 20.1126C14.24 19.354 13.8068 18.586 13.4138 17.7963C13.2061 17.3787 13.0013 16.9594 12.805 16.5359C12.6082 16.1107 12.4243 15.6794 12.2342 15.2512C11.8808 14.4541 11.5861 13.6353 11.32 12.806C11.1649 12.3226 11.0199 11.8357 10.8718 11.3501C10.8562 11.2987 10.828 11.252 10.7897 11.2143C10.4034 10.8321 10.0181 10.4488 9.63271 10.066C9.61677 10.05 9.59991 10.035 9.57416 10.0258C9.57691 10.0421 9.57876 10.0589 9.58244 10.0748C9.80133 11.008 10.0205 11.9409 10.2391 12.8738C10.4485 13.7671 10.6576 14.6607 10.8669 15.554C11.0791 16.4578 11.2918 17.3616 11.504 18.2653C11.7247 19.2046 11.9451 20.144 12.1659 21.0836C12.2712 21.5333 12.377 21.9833 12.4813 22.4334C12.496 22.4972 12.5273 22.5361 12.5908 22.5623C13.5282 22.9507 14.4648 23.3416 15.4013 23.7319C15.4044 23.7331 15.4075 23.7344 15.4105 23.7356C15.4414 23.7481 15.4771 23.7334 15.4905 23.7032C15.6932 23.2553 15.8936 22.8107 16.0947 22.3643Z" fill="white"/>
<path d="M50.2697 50.1524C50.2026 49.9323 50.1341 49.7129 50.0659 49.4932C49.8711 48.867 49.6805 48.2398 49.4337 47.6312C49.2972 47.2946 49.1698 46.9541 49.0248 46.6211C48.7534 45.9981 48.4603 45.385 48.167 44.7722C47.7556 43.9125 47.3215 43.0653 46.8381 42.2434C46.4137 41.522 45.9797 40.8071 45.5176 40.1093C45.3965 39.9263 45.2767 39.7427 45.1587 39.5578C45.1375 39.5244 45.1195 39.484 45.1161 39.4451C45.1077 39.3504 45.1201 39.258 45.1608 39.1685C45.3349 38.7847 45.5054 38.3993 45.6776 38.0146C45.7473 37.8594 45.8183 37.7056 45.8883 37.5505C45.9088 37.5045 45.9443 37.4766 45.9882 37.4548C46.0538 37.422 46.1139 37.4447 46.1743 37.4693C47.2081 37.8889 48.2421 38.3084 49.2754 38.7292C49.3349 38.7535 49.3924 38.7844 49.4469 38.8182C49.5269 38.8678 49.5829 38.9303 49.6056 39.0318C49.7307 39.5919 49.8639 40.1501 49.9941 40.709C50.3025 42.0318 50.6112 43.355 50.9196 44.6778C51.171 45.7559 51.422 46.8338 51.6731 47.9121C51.9684 49.1785 52.2632 50.4452 52.5595 51.7113C52.6069 51.9139 52.6407 52.1206 52.7244 52.3133C52.7354 52.3388 52.7465 52.3649 52.7541 52.3918C52.7777 52.4736 52.7768 52.5529 52.7235 52.6254C52.6435 52.7346 52.5352 52.7705 52.4052 52.7198C52.2381 52.6546 52.0649 52.6064 51.8901 52.5669C50.9479 52.3541 50.0061 52.138 49.064 51.923C48.1693 51.7189 47.2745 51.5144 46.38 51.3102C45.4855 51.1061 44.5907 50.9019 43.696 50.6974C42.818 50.4969 41.9403 50.2965 41.0623 50.0963C40.3751 49.9393 39.6876 49.7824 39.0004 49.6264C38.9562 49.6162 38.921 49.5959 38.8924 49.5617C38.8283 49.4854 38.7772 49.4013 38.7392 49.309C38.3714 48.4145 38.0032 47.5203 37.6353 46.6258C37.5822 46.4966 37.528 46.3678 37.4759 46.2383C37.4234 46.1079 37.481 45.958 37.6083 45.8982C37.6209 45.8923 37.6331 45.8866 37.6456 45.881C37.8983 45.7668 38.151 45.652 38.4035 45.538C38.6642 45.4203 38.9235 45.2997 39.1859 45.1867C39.3192 45.1294 39.4557 45.1161 39.5845 45.2088C39.6246 45.2376 39.669 45.2599 39.71 45.2872C40.46 45.7833 41.2205 46.262 41.9982 46.7133C42.4354 46.9669 42.8733 47.2196 43.3209 47.4537C43.8291 47.7198 44.3457 47.9703 44.8653 48.2143C45.6299 48.5732 46.3913 48.9386 47.1792 49.2452C47.4938 49.3675 47.8055 49.4976 48.1238 49.6086C48.5073 49.7419 48.896 49.8602 49.2835 49.9819C49.5788 50.0749 49.8751 50.1632 50.1715 50.2526C50.1811 50.2554 50.1904 50.2588 50.2001 50.2619C50.2449 50.2753 50.2872 50.2352 50.2785 50.1888C50.2761 50.1769 50.2734 50.1646 50.2697 50.1524ZM51.6149 51.9461C51.2476 51.58 50.8798 51.2143 50.5131 50.848C50.4892 50.8241 50.4625 50.8103 50.431 50.8007C50.0005 50.6724 49.5692 50.5473 49.1406 50.4132C48.334 50.1617 47.5354 49.8866 46.7562 49.5595C45.902 49.2009 45.0535 48.829 44.2225 48.4191C43.5397 48.0824 42.8625 47.7351 42.2055 47.3501C41.6991 47.0534 41.1893 46.7621 40.6875 46.4574C40.2665 46.2017 39.8523 45.9346 39.4535 45.6451C39.4093 45.6131 39.3751 45.6112 39.326 45.6339C38.8927 45.8338 38.4581 46.031 38.024 46.229C38.0237 46.229 38.0237 46.229 38.0234 46.2293C37.993 46.243 37.9792 46.2787 37.9914 46.3096C37.9936 46.3149 37.9958 46.3204 37.9979 46.3255C38.3113 47.0684 38.6245 47.8109 38.9378 48.5533C39.0182 48.7434 39.1003 48.9329 39.1775 49.1241C39.2018 49.1845 39.2392 49.2156 39.302 49.2296C39.6166 49.3002 39.9306 49.3737 40.2447 49.4458C41.3003 49.6886 42.3561 49.9317 43.4115 50.1742C44.3205 50.3833 45.2297 50.5918 46.1388 50.8004C47.2991 51.0671 48.4594 51.3339 49.6197 51.6006C50.3046 51.7578 50.9894 51.9155 51.6744 52.0724C51.6927 52.0767 51.7114 52.0786 51.7301 52.0817C51.732 52.0773 51.7335 52.073 51.7354 52.069C51.6958 52.0282 51.6557 51.9868 51.6149 51.9461ZM45.586 39.3654C45.5774 39.3847 45.5783 39.4074 45.59 39.4245C45.5907 39.4251 45.591 39.4261 45.5916 39.4267C46.0992 40.1305 46.5493 40.8712 46.9913 41.6171C47.4407 42.3757 47.8739 43.1437 48.2669 43.9334C48.4748 44.351 48.6795 44.7703 48.8758 45.1938C49.0725 45.619 49.2564 46.0503 49.4466 46.4786C49.8001 47.2756 50.0946 48.0945 50.3607 48.9237C50.5159 49.4071 50.6609 49.894 50.8089 50.3796C50.8246 50.431 50.8527 50.4776 50.891 50.5153C51.2773 50.8977 51.6628 51.2809 52.0481 51.6637C52.064 51.6797 52.0809 51.6948 52.1066 51.7039C52.1039 51.6877 52.102 51.6708 52.0983 51.6549C51.8795 50.7217 51.6603 49.7888 51.4416 48.8559C51.2324 47.9626 51.0232 47.069 50.8138 46.1757C50.6016 45.2719 50.389 44.3681 50.1768 43.4644C49.9561 42.5251 49.7357 41.5857 49.515 40.6461C49.4095 40.1964 49.3037 39.7464 49.1995 39.2963C49.1848 39.2325 49.1534 39.1936 49.09 39.1672C48.1525 38.7788 47.216 38.3881 46.2795 37.9978C46.2764 37.9966 46.2733 37.9953 46.2702 37.9941C46.2393 37.9816 46.2038 37.9963 46.1902 38.0265C45.9876 38.4744 45.7871 38.919 45.586 39.3654Z" fill="white"/>
<path d="M11.4023 50.1899C11.3934 50.2358 11.4357 50.2759 11.4807 50.2628C11.4905 50.2597 11.5001 50.2563 11.5092 50.2536C11.8054 50.1641 12.1022 50.0755 12.3973 49.983C12.7848 49.8613 13.1735 49.7428 13.5572 49.6095C13.8756 49.4988 14.1874 49.3686 14.5016 49.2463C15.2895 48.9397 16.0511 48.5743 16.8155 48.2153C17.3352 47.9712 17.8517 47.7207 18.3601 47.4546C18.8077 47.2205 19.2454 46.9678 19.6826 46.7144C20.4606 46.2631 21.2209 45.7842 21.9708 45.2881C22.0118 45.261 22.0566 45.2386 22.0965 45.2097C22.2251 45.1172 22.3616 45.1303 22.4949 45.1876C22.7573 45.3008 23.0168 45.4213 23.2773 45.539C23.53 45.6531 23.7825 45.7674 24.0352 45.882C24.0477 45.8878 24.0603 45.8934 24.0725 45.8993C24.1995 45.9593 24.2574 46.1088 24.205 46.2392C24.1528 46.3686 24.0989 46.4976 24.0455 46.6267C23.6776 47.5212 23.3094 48.4154 22.9416 49.3101C22.9036 49.4023 22.8525 49.4863 22.7884 49.5626C22.7595 49.5967 22.7246 49.6173 22.6804 49.6273C21.9932 49.7833 21.3057 49.9403 20.6185 50.0973C19.7405 50.2977 18.8628 50.498 17.9848 50.6985C17.0903 50.9027 16.1953 51.1068 15.3008 51.3113C14.4063 51.5155 13.5115 51.72 12.6169 51.9241C11.6748 52.139 10.7333 52.3552 9.79065 52.5678C9.61561 52.6074 9.4424 52.6556 9.27562 52.7209C9.14565 52.7717 9.03743 52.7359 8.95741 52.6264C8.90407 52.5538 8.90316 52.4747 8.92676 52.3929C8.93442 52.3661 8.94546 52.34 8.95649 52.3144C9.04018 52.1215 9.07422 51.9149 9.12143 51.7122C9.41726 50.4458 9.71249 49.1794 10.0077 47.913C10.2591 46.8349 10.5102 45.7569 10.7612 44.6787C11.0696 43.3559 11.3784 42.0329 11.6868 40.7099C11.8171 40.1512 11.9501 39.5929 12.0752 39.0327C12.0979 38.9312 12.1536 38.8688 12.2339 38.8191C12.2886 38.7854 12.3459 38.7541 12.4054 38.7302C13.4387 38.3096 14.4728 37.8898 15.5065 37.4702C15.5669 37.4457 15.627 37.423 15.6926 37.4559C15.7365 37.4776 15.772 37.5058 15.7925 37.5515C15.8622 37.7062 15.9335 37.8605 16.0032 38.0156C16.1754 38.4 16.3459 38.7858 16.5201 39.1695C16.5606 39.259 16.5731 39.3513 16.5647 39.446C16.5615 39.4846 16.5436 39.5254 16.5221 39.5589C16.4041 39.7437 16.2843 39.9274 16.1632 40.1104C15.7013 40.8081 15.2671 41.5234 14.8429 42.2443C14.3593 43.0662 13.9254 43.9136 13.5139 44.7732C13.2205 45.3861 12.9274 45.9992 12.6562 46.622C12.5111 46.955 12.3836 47.2956 12.2472 47.6322C12.0004 48.2407 11.8097 48.8679 11.615 49.4943C11.5466 49.7138 11.4783 49.9336 11.4112 50.1533C11.4075 50.1648 11.4047 50.177 11.4023 50.1899ZM9.94486 52.0695C9.9467 52.0736 9.94823 52.078 9.95006 52.082C9.96877 52.0789 9.98747 52.077 10.0059 52.0727C10.6907 51.9155 11.3756 51.7583 12.0605 51.601C13.2208 51.3343 14.3811 51.0676 15.5414 50.8009C16.4504 50.5921 17.3596 50.3833 18.2687 50.1745C19.3244 49.9317 20.38 49.6889 21.4355 49.4461C21.7498 49.3739 22.0636 49.3002 22.3782 49.2301C22.441 49.2159 22.4784 49.1847 22.5026 49.1246C22.5799 48.9332 22.662 48.7437 22.7423 48.5538C23.0557 47.8112 23.3689 47.0684 23.6823 46.326C23.6844 46.3207 23.6866 46.3152 23.6888 46.3099C23.701 46.279 23.6872 46.2435 23.6568 46.2296C23.6565 46.2296 23.6565 46.2296 23.6562 46.2293C23.2222 46.0313 22.7874 45.8342 22.3542 45.6342C22.3053 45.6117 22.2708 45.6136 22.2267 45.6454C21.8279 45.9351 21.4137 46.2021 20.9928 46.4577C20.4912 46.7624 19.9811 47.0537 19.4747 47.3504C18.8177 47.7356 18.1405 48.0829 17.4579 48.4194C16.6267 48.8293 15.7782 49.2012 14.9241 49.5598C14.1448 49.8872 13.3462 50.162 12.5396 50.4137C12.111 50.5473 11.6794 50.6724 11.2493 50.8012C11.2177 50.8106 11.191 50.8245 11.1671 50.8483C10.8002 51.2149 10.4326 51.5805 10.0653 51.9465C10.0252 51.987 9.98501 52.0284 9.94486 52.0695ZM15.4915 38.0267C15.4778 37.9963 15.4424 37.9816 15.4115 37.9941C15.4084 37.9953 15.4054 37.9966 15.4023 37.9978C14.4657 38.3881 13.5292 38.779 12.5918 39.1674C12.5283 39.1938 12.4969 39.2327 12.4823 39.2965C12.378 39.7465 12.2722 40.1966 12.1669 40.6463C11.9464 41.5856 11.7257 42.5249 11.505 43.4645C11.2925 44.3682 11.0801 45.2719 10.8679 46.1757C10.6582 47.069 10.4495 47.9627 10.2401 48.856C10.0212 49.7892 9.802 50.7221 9.58342 51.6549C9.57975 51.6712 9.57789 51.6877 9.57514 51.7039C9.60089 51.6948 9.61745 51.6798 9.63369 51.6637C10.0193 51.2809 10.4047 50.8977 10.7907 50.5155C10.829 50.4776 10.8572 50.4309 10.8728 50.3796C11.0209 49.894 11.1659 49.4072 11.321 48.9238C11.5871 48.0945 11.8821 47.2753 12.2352 46.4786C12.4253 46.05 12.6089 45.619 12.806 45.1938C13.002 44.7705 13.2071 44.351 13.4149 43.9336C13.8078 43.1437 14.2407 42.3759 14.6904 41.6171C15.1321 40.8713 15.5825 40.1309 16.0903 39.4267C16.0909 39.4261 16.0912 39.4251 16.0918 39.4245C16.1037 39.4071 16.1047 39.3844 16.0957 39.3654C15.8937 38.919 15.6932 38.4746 15.4915 38.0267Z" fill="white"/>
<path d="M58.2753 30.9447C58.3139 30.9184 58.3127 30.8602 58.2713 30.8378C58.2623 30.8328 58.2532 30.8285 58.2446 30.8239C57.9717 30.6778 57.6995 30.5306 57.4251 30.3874C57.0649 30.1995 56.7065 30.0081 56.3411 29.8313C56.0376 29.6844 55.7252 29.5559 55.4163 29.4202C54.6421 29.0799 53.8453 28.7996 53.0507 28.513C52.511 28.3181 51.9686 28.1301 51.4208 27.9589C50.9386 27.808 50.4504 27.677 49.9621 27.5471C49.093 27.3162 48.2166 27.117 47.3355 26.9374C47.287 26.9275 47.2396 26.9119 47.1911 26.9039C47.0348 26.8784 46.9474 26.7725 46.8938 26.6378C46.788 26.3723 46.69 26.1037 46.589 25.8361C46.4909 25.5768 46.3934 25.3175 46.2957 25.0579C46.2907 25.0449 46.2861 25.0321 46.2815 25.0191C46.2344 24.8867 46.2994 24.7402 46.4283 24.685C46.5568 24.6304 46.6863 24.5774 46.8149 24.5238C47.7077 24.1516 48.6004 23.7794 49.493 23.4069C49.5851 23.3686 49.6807 23.3453 49.78 23.3368C49.8245 23.3328 49.8637 23.3431 49.902 23.3674C50.4986 23.7433 51.0955 24.1182 51.6924 24.4931C52.4547 24.9723 53.2172 25.4511 53.98 25.9303C54.7571 26.4186 55.534 26.9067 56.3111 27.395C57.0883 27.883 57.8654 28.3714 58.6422 28.8596C59.4605 29.3735 60.279 29.8864 61.096 30.4024C61.2476 30.498 61.4039 30.5867 61.5683 30.6586C61.6961 30.7148 61.7474 30.8166 61.7266 30.9502C61.7127 31.0395 61.6575 31.0959 61.5831 31.1369C61.5588 31.1504 61.5324 31.1612 61.5066 31.1712C61.3111 31.2483 61.1409 31.3706 60.9641 31.4803C59.8595 32.1664 58.7553 32.8534 57.651 33.54C56.7111 34.1247 55.7712 34.7096 54.8313 35.2943C53.6778 36.0117 52.5241 36.7289 51.3704 37.4463C50.883 37.7494 50.3944 38.0503 49.9097 38.3578C49.8217 38.4135 49.738 38.4182 49.6464 38.3967C49.5839 38.382 49.5213 38.3635 49.4625 38.3385C48.4342 37.9053 47.4063 37.4705 46.3788 37.0364C46.3187 37.0111 46.2602 36.9847 46.2368 36.915C46.2211 36.8688 46.216 36.8237 46.2337 36.7765C46.2941 36.6177 46.3523 36.4583 46.413 36.2994C46.5633 35.9059 46.7153 35.5125 46.8634 35.1182C46.898 35.0264 46.9545 34.9524 47.0274 34.8911C47.0572 34.8664 47.0985 34.85 47.1372 34.8415C47.3514 34.7939 47.5661 34.7488 47.7809 34.7053C48.601 34.5386 49.4137 34.3399 50.2237 34.13C51.1466 33.8908 52.0529 33.5984 52.9514 33.2813C53.5922 33.0554 54.2328 32.8291 54.8653 32.5805C55.2035 32.4478 55.5343 32.2969 55.869 32.1556C56.4739 31.8997 57.0523 31.5913 57.6327 31.286C57.8362 31.1789 58.0398 31.0719 58.243 30.9638C58.2538 30.9589 58.2645 30.9521 58.2753 30.9447ZM60.6348 30.6464C60.6367 30.6421 60.6385 30.6381 60.6401 30.6339C60.6248 30.6228 60.61 30.6109 60.5941 30.6007C59.9987 30.2277 59.403 29.8546 58.8075 29.4815C57.7985 28.8497 56.7893 28.2179 55.7802 27.586C54.9894 27.0909 54.1991 26.5955 53.4089 26.1005C52.4907 25.5257 51.5726 24.9508 50.6543 24.3763C50.3812 24.2052 50.1071 24.0355 49.835 23.8625C49.7803 23.8279 49.7323 23.8236 49.6722 23.8491C49.4821 23.9297 49.2901 24.0054 49.0992 24.0829C48.3524 24.3864 47.6059 24.69 46.8591 24.9938C46.8538 24.9959 46.8484 24.9979 46.8432 25.0004C46.8126 25.0137 46.7971 25.0486 46.8089 25.0798C46.8089 25.0801 46.8089 25.0801 46.8092 25.0804C46.9761 25.5275 47.1439 25.9742 47.3088 26.4217C47.3275 26.4725 47.3533 26.4955 47.4069 26.5039C47.8938 26.5811 48.3754 26.685 48.854 26.8018C49.4242 26.941 49.9907 27.0959 50.5584 27.244C51.2954 27.4361 52.0198 27.6694 52.7405 27.9141C53.6178 28.212 54.4808 28.549 55.3386 28.8994C56.121 29.2191 56.8801 29.5894 57.6283 29.9816C58.026 30.1899 58.4197 30.4067 58.8147 30.62C58.8439 30.6358 58.8724 30.6449 58.9065 30.6449C59.4251 30.6452 59.9436 30.6464 60.4623 30.6477C60.5196 30.648 60.5772 30.6467 60.6348 30.6464ZM46.7831 36.6542C46.7712 36.6855 46.7859 36.7207 46.8168 36.7338C46.8198 36.7351 46.8229 36.7363 46.826 36.7379C47.7644 37.1241 48.7028 37.5101 49.6402 37.8982C49.7037 37.9246 49.7534 37.919 49.8092 37.8844C50.2013 37.6398 50.5939 37.3964 50.9866 37.153C51.8067 36.6447 52.6271 36.1363 53.4475 35.6281C54.2365 35.1391 55.026 34.6504 55.8151 34.1615C56.595 33.6781 57.3746 33.1939 58.1542 32.7102C58.9687 32.2054 59.7832 31.7003 60.5978 31.1955C60.6118 31.187 60.6248 31.1762 60.6382 31.1667C60.6137 31.155 60.591 31.1538 60.5686 31.1538C60.0251 31.1519 59.4819 31.1504 58.9386 31.1477C58.885 31.1474 58.8319 31.1606 58.7845 31.1857C58.3363 31.4245 57.8895 31.666 57.4381 31.8982C56.6632 32.2963 55.8757 32.667 55.0625 32.9806C54.6252 33.1493 54.1902 33.3243 53.7503 33.4855C53.3125 33.6461 52.8711 33.7979 52.4288 33.9464C51.5925 34.2268 50.7432 34.4637 49.8889 34.6824C49.0492 34.8972 48.207 35.1023 47.3502 35.2412C47.3493 35.2412 47.3483 35.2415 47.3474 35.2418C47.3269 35.2458 47.31 35.2611 47.3028 35.2807C47.1298 35.7385 46.9571 36.1944 46.7831 36.6542Z" fill="white"/>
<path d="M30.7653 3.48798C30.6572 3.69091 30.5505 3.89479 30.4432 4.09834C30.1382 4.67867 29.8294 5.25746 29.5735 5.862C29.4319 6.19646 29.2813 6.52755 29.1487 6.86569C28.9 7.49813 28.6738 8.13885 28.4478 8.77956C28.1308 9.67842 27.8387 10.5846 27.5992 11.5074C27.3893 12.3173 27.1905 13.13 27.0239 13.9501C26.98 14.165 26.9352 14.3799 26.8877 14.5938C26.8792 14.6325 26.8631 14.6739 26.8381 14.7036C26.7771 14.7766 26.7031 14.833 26.6109 14.8676C26.2163 15.016 25.8233 15.168 25.4297 15.318C25.2708 15.3783 25.1114 15.4369 24.9527 15.4972C24.9054 15.515 24.8606 15.5099 24.8141 15.4942C24.7445 15.471 24.7181 15.4123 24.6928 15.3523C24.2583 14.3244 23.8239 13.2968 23.3907 12.2686C23.366 12.2094 23.3471 12.1469 23.3324 12.0846C23.3107 11.993 23.3156 11.909 23.3714 11.8213C23.6789 11.3366 23.9796 10.8479 24.2829 10.3605C25.0002 9.20691 25.7175 8.05332 26.4348 6.89972C27.0196 5.95979 27.6044 5.01987 28.189 4.07995C28.8758 2.9757 29.5627 1.87147 30.2489 0.766917C30.3585 0.590031 30.4809 0.420194 30.5579 0.224299C30.568 0.198242 30.5788 0.172184 30.5922 0.147966C30.6336 0.0734705 30.69 0.0182893 30.7789 0.00449393C30.9125 -0.0163524 31.0146 0.0351514 31.0704 0.162682C31.1425 0.327 31.2308 0.483346 31.3267 0.635095C31.8427 1.45209 32.3559 2.27061 32.8696 3.08883C33.3581 3.86597 33.8461 4.64311 34.3341 5.41993C34.8222 6.19708 35.3105 6.97391 35.7989 7.75105C36.2781 8.51348 36.7568 9.2762 37.2361 10.0386C37.6109 10.6355 37.9862 11.2324 38.3618 11.829C38.3859 11.8673 38.3964 11.9065 38.3924 11.951C38.3839 12.0503 38.3606 12.1456 38.3223 12.2379C37.9497 13.1306 37.5775 14.0233 37.2053 14.9161C37.1518 15.0448 37.0986 15.1742 37.0441 15.3026C36.9893 15.4321 36.8424 15.4969 36.7101 15.4495C36.6971 15.4449 36.6843 15.4399 36.6713 15.4353C36.4117 15.3379 36.1524 15.2401 35.8929 15.142C35.6257 15.0411 35.3572 14.9427 35.0914 14.8373C34.9564 14.7836 34.8507 14.6962 34.8253 14.5399C34.8172 14.4912 34.8016 14.4439 34.7918 14.3955C34.6124 13.5145 34.4132 12.6383 34.182 11.7689C34.0524 11.2805 33.9212 10.7922 33.7703 10.3102C33.599 9.76242 33.4111 9.2201 33.216 8.68024C32.9292 7.88594 32.6492 7.08887 32.309 6.31481C32.1732 6.0061 32.0447 5.6934 31.8979 5.38989C31.721 5.02447 31.5297 4.66579 31.3417 4.30589C31.1985 4.03152 31.0514 3.75928 30.9053 3.48645C30.9006 3.47786 30.8963 3.46866 30.8914 3.45978C30.8693 3.41839 30.8107 3.41715 30.7843 3.45579C30.778 3.46591 30.7712 3.47663 30.7653 3.48798ZM31.0824 1.26846C31.0833 1.78716 31.0849 2.30555 31.0852 2.82426C31.0852 2.85799 31.0943 2.88681 31.1101 2.91593C31.3233 3.31108 31.54 3.70472 31.7485 4.10233C32.1409 4.85065 32.5113 5.60969 32.8307 6.39206C33.1811 7.24982 33.5181 8.1128 33.816 8.99017C34.0606 9.71091 34.294 10.4353 34.4861 11.1723C34.6345 11.7404 34.789 12.3066 34.9283 12.8768C35.045 13.355 35.1493 13.837 35.2262 14.3238C35.2348 14.3774 35.2579 14.4032 35.3084 14.4219C35.7562 14.5868 36.2026 14.7548 36.6495 14.9216C36.6498 14.9216 36.6498 14.9216 36.6501 14.9219C36.6815 14.9335 36.7164 14.9182 36.7297 14.8875C36.7317 14.8823 36.7341 14.8768 36.7363 14.8716C37.0398 14.1248 37.3437 13.3783 37.6472 12.6315C37.7247 12.4402 37.8004 12.2483 37.881 12.0586C37.9065 11.9988 37.9022 11.9504 37.8676 11.8958C37.6949 11.6236 37.5249 11.3495 37.3538 11.0763C36.7789 10.1582 36.2044 9.24003 35.6296 8.32186C35.1346 7.53124 34.6392 6.74092 34.144 5.9506C33.5122 4.94169 32.8804 3.93249 32.2486 2.92328C31.8755 2.32764 31.5023 1.73229 31.1294 1.13663C31.1192 1.12069 31.1073 1.10598 31.0962 1.09065C31.0918 1.09249 31.088 1.09433 31.0836 1.09586C31.0833 1.15319 31.0821 1.21082 31.0824 1.26846ZM26.4497 14.4274C26.4693 14.42 26.4846 14.4032 26.4886 14.3826C26.4889 14.3817 26.4889 14.3808 26.4892 14.3799C26.628 13.5233 26.8335 12.6812 27.048 11.8412C27.2667 10.9868 27.5036 10.1376 27.784 9.30134C27.9324 8.85898 28.084 8.41752 28.2449 7.97975C28.4064 7.53983 28.5811 7.10481 28.7497 6.66766C29.0634 5.85434 29.4341 5.06677 29.8322 4.29209C30.0643 3.84052 30.3062 3.39386 30.5446 2.94566C30.5698 2.89814 30.583 2.84511 30.5826 2.79147C30.5799 2.24823 30.5785 1.70469 30.5766 1.16146C30.5766 1.13878 30.5754 1.1164 30.5636 1.09188C30.5539 1.10536 30.5434 1.11824 30.5349 1.13234C30.0299 1.94688 29.525 2.76142 29.0202 3.57596C28.5366 4.35586 28.0523 5.13515 27.5689 5.91504C27.0796 6.70413 26.5913 7.49354 26.1023 8.28264C25.5939 9.10299 25.0857 9.92305 24.5774 10.7434C24.334 11.1361 24.0906 11.5288 23.846 11.9209C23.8114 11.9764 23.8058 12.0261 23.8322 12.0898C24.2206 13.0273 24.6063 13.966 24.9925 14.9041C24.9938 14.9072 24.995 14.9102 24.9965 14.9133C25.0097 14.9439 25.0449 14.9587 25.0762 14.947C25.5357 14.7735 25.9916 14.6006 26.4497 14.4274Z" fill="white"/>
<path d="M30.9658 58.2418C31.074 58.0388 31.1806 57.835 31.2879 57.6314C31.5929 57.051 31.9017 56.4725 32.1577 55.8677C32.2993 55.5332 32.4498 55.2022 32.5826 54.864C32.8312 54.2316 33.0575 53.5908 33.2834 52.9502C33.6003 52.0513 33.8925 51.1451 34.1319 50.2223C34.342 49.4124 34.5406 48.5998 34.7074 47.7797C34.7512 47.5647 34.7959 47.3499 34.8434 47.1358C34.8521 47.0972 34.868 47.0558 34.8932 47.0262C34.9542 46.9531 35.028 46.8967 35.1203 46.8622C35.5148 46.7137 35.9078 46.5616 36.3015 46.4118C36.4603 46.3514 36.6197 46.2927 36.7786 46.2323C36.8257 46.2146 36.8705 46.2198 36.9171 46.2354C36.9866 46.2588 37.013 46.3173 37.0385 46.3774C37.4729 47.4053 37.9072 48.433 38.3404 49.4611C38.3653 49.5204 38.384 49.5829 38.3986 49.645C38.4204 49.7368 38.4155 49.8208 38.3597 49.9085C38.0522 50.3931 37.7515 50.8818 37.4484 51.3692C36.731 52.5229 36.0136 53.6764 35.2963 54.83C34.7117 55.77 34.1267 56.7099 33.5421 57.6498C32.8553 58.754 32.1684 59.8583 31.4824 60.9629C31.3725 61.1397 31.2502 61.3096 31.1733 61.5054C31.1631 61.5315 31.1525 61.5576 31.1389 61.5817C31.0975 61.6563 31.0411 61.7114 30.9523 61.7252C30.8186 61.746 30.7165 61.6946 30.6607 61.567C30.5886 61.4027 30.5004 61.2464 30.4044 61.0946C29.8885 60.2776 29.3753 59.4591 28.8615 58.6408C28.3732 57.8637 27.8851 57.0866 27.397 56.3097C26.9089 55.5326 26.4206 54.7557 25.9322 53.9786C25.4532 53.2163 24.9742 52.4535 24.495 51.691C24.1202 51.0943 23.7449 50.4974 23.3695 49.9008C23.3452 49.8625 23.3347 49.8232 23.3387 49.7788C23.3474 49.6795 23.3705 49.584 23.409 49.4918C23.7814 48.5991 24.1536 47.7063 24.5258 46.8137C24.5793 46.6849 24.6325 46.5556 24.687 46.4271C24.7421 46.2977 24.8887 46.2327 25.0212 46.2802C25.034 46.2849 25.0468 46.2898 25.0598 46.2943C25.3194 46.3919 25.5787 46.4896 25.8382 46.5877C26.1055 46.6886 26.3741 46.7869 26.6399 46.8924C26.7747 46.9462 26.8805 47.0334 26.9058 47.1899C26.9139 47.2385 26.9295 47.2858 26.9393 47.3343C27.1186 48.2152 27.3179 49.0915 27.5491 49.9608C27.6788 50.4492 27.8099 50.9372 27.9608 51.4195C28.1322 51.967 28.32 52.5096 28.5151 53.0495C28.802 53.8438 29.0819 54.6408 29.4221 55.4149C29.558 55.7236 29.6864 56.0364 29.8332 56.3398C30.0102 56.7052 30.2014 57.0639 30.3894 57.4239C30.5325 57.6981 30.6797 57.9704 30.826 58.2433C30.8305 58.2518 30.8348 58.2611 30.8397 58.27C30.8618 58.3113 30.9203 58.3125 30.9468 58.2739C30.9532 58.2635 30.9599 58.2527 30.9658 58.2418ZM30.6487 60.4612C30.6478 59.9426 30.6464 59.4242 30.6461 58.9054C30.6461 58.8717 30.6368 58.8428 30.6212 58.8138C30.4078 58.4186 30.1911 58.0249 29.9826 57.6274C29.5902 56.8791 29.2198 56.1201 28.9004 55.3377C28.55 54.4799 28.2132 53.6169 27.9151 52.7395C27.6705 52.0188 27.4373 51.2944 27.245 50.5574C27.0966 49.9894 26.9421 49.4231 26.803 48.8529C26.6861 48.3747 26.5818 47.8927 26.5049 47.4059C26.4964 47.3523 26.4734 47.3266 26.4227 47.3079C25.9749 47.1429 25.5285 46.9749 25.0816 46.8081C25.0813 46.8081 25.0813 46.8081 25.081 46.8078C25.0496 46.7962 25.0147 46.8115 25.0016 46.8422C24.9994 46.8473 24.997 46.8529 24.9948 46.8581C24.6913 47.6049 24.3875 48.3514 24.0841 49.0981C24.0064 49.2895 23.9307 49.4815 23.8501 49.6711C23.8246 49.7309 23.8289 49.7794 23.8635 49.8339C24.0362 50.1062 24.2064 50.3801 24.3773 50.6534C24.9522 51.5715 25.5267 52.4896 26.1015 53.4078C26.5966 54.1985 27.0919 54.9888 27.5871 55.7791C28.2189 56.788 28.8507 57.7973 29.4825 58.8064C29.8556 59.4021 30.2288 59.9974 30.6019 60.5931C30.6119 60.609 30.624 60.6237 30.6349 60.6391C30.6393 60.6373 30.6433 60.6354 30.6475 60.6339C30.6478 60.5766 30.649 60.5188 30.6487 60.4612ZM35.2816 47.302C35.262 47.3094 35.2465 47.3262 35.2427 47.3468C35.2424 47.3477 35.2424 47.3486 35.242 47.3496C35.103 48.2061 34.8978 49.0483 34.6831 49.8883C34.4646 50.7426 34.2275 51.5917 33.9471 52.428C33.7986 52.8705 33.6473 53.3116 33.4864 53.7497C33.3247 54.1896 33.15 54.6246 32.9814 55.0617C32.6678 55.8751 32.2972 56.6626 31.8989 57.4373C31.6669 57.8889 31.4249 58.3355 31.1864 58.7837C31.1613 58.8313 31.1481 58.8842 31.1485 58.938C31.1512 59.4812 31.1528 60.0248 31.1546 60.5679C31.1546 60.5906 31.1559 60.613 31.1675 60.6376C31.1773 60.624 31.1877 60.6112 31.1963 60.5971C31.7012 59.7825 32.2061 58.9679 32.7111 58.1534C33.1945 57.3735 33.6788 56.5942 34.1622 55.8144C34.6516 55.0252 35.14 54.2359 35.6289 53.4467C36.1372 52.6265 36.6454 51.8064 37.1537 50.986C37.3971 50.5933 37.6405 50.2005 37.8851 49.8084C37.9199 49.753 37.9253 49.7034 37.899 49.6396C37.5106 48.7022 37.125 47.7635 36.7386 46.8252C36.7375 46.8223 36.7363 46.8192 36.7347 46.8161C36.7214 46.7854 36.6862 46.7707 36.655 46.7825C36.1954 46.9562 35.7395 47.1289 35.2816 47.302Z" fill="white"/>
<path d="M3.4558 30.7846C3.41717 30.811 3.4184 30.8692 3.45979 30.8916C3.46868 30.8965 3.47787 30.9007 3.48646 30.9053C3.75929 31.0516 4.03152 31.1988 4.3059 31.3419C4.66612 31.5299 5.02448 31.7211 5.38992 31.8981C5.69341 32.0448 6.00579 32.1733 6.31481 32.3092C7.08888 32.6494 7.88564 32.9296 8.68025 33.2162C9.22011 33.4113 9.76243 33.5991 10.3103 33.7705C10.7925 33.9214 11.2805 34.0522 11.7689 34.1823C12.6379 34.4131 13.5144 34.6124 14.3955 34.792C14.444 34.8019 14.4915 34.8175 14.5399 34.8253C14.6963 34.8508 14.7836 34.9569 14.8373 35.0914C14.9431 35.3569 15.0412 35.6255 15.142 35.8931C15.2401 36.1524 15.3375 36.4119 15.4353 36.6715C15.4402 36.6843 15.4449 36.6973 15.4495 36.7101C15.4968 36.8426 15.4318 36.9892 15.3026 37.0443C15.1741 37.0989 15.0449 37.152 14.9161 37.2056C14.0234 37.5778 13.1306 37.95 12.2379 38.3223C12.1459 38.3606 12.0503 38.384 11.951 38.3926C11.9065 38.3966 11.8673 38.3861 11.829 38.3619C11.2324 37.9861 10.6355 37.6111 10.0386 37.2362C9.27622 36.7571 8.51379 36.2782 7.75106 35.7991C6.97392 35.3107 6.19708 34.8227 5.41996 34.3342C4.64281 33.8462 3.86567 33.3579 3.08884 32.8698C2.27063 32.3557 1.45209 31.8428 0.635106 31.327C0.483353 31.2312 0.327013 31.1427 0.162689 31.0706C0.0348587 31.0145 -0.016338 30.9128 0.00451141 30.779C0.0183029 30.6899 0.0734842 30.6335 0.147986 30.5924C0.172202 30.5789 0.198565 30.5682 0.22431 30.558C0.419893 30.4811 0.59004 30.3588 0.766936 30.249C1.87148 29.5629 2.97572 28.8758 4.07997 28.1892C5.01989 27.6046 5.95982 27.0196 6.89974 26.4351C8.05333 25.7177 9.20694 25.0003 10.3605 24.2829C10.848 23.9798 11.3366 23.6791 11.8213 23.3716C11.9093 23.3158 11.993 23.3112 12.0846 23.3327C12.1471 23.3473 12.2097 23.3657 12.2685 23.3909C13.2968 23.8241 14.3247 24.2587 15.3524 24.6928C15.4124 24.7183 15.471 24.7447 15.4943 24.8142C15.5099 24.8606 15.5152 24.9057 15.4972 24.9528C15.4369 25.1117 15.3786 25.2711 15.3179 25.4298C15.1678 25.8235 15.0157 26.2168 14.8676 26.611C14.833 26.703 14.7766 26.7768 14.7036 26.8382C14.6739 26.863 14.6325 26.8792 14.5939 26.8879C14.3796 26.9353 14.165 26.9804 13.9501 27.024C13.13 27.1907 12.3173 27.3894 11.5074 27.5994C10.5843 27.8385 9.67812 28.131 8.77958 28.4479C8.13886 28.6738 7.49815 28.9001 6.8657 29.1487C6.52757 29.2816 6.19679 29.4323 5.86202 29.5736C5.25747 29.8297 4.67869 30.1381 4.09835 30.4434C3.8948 30.5504 3.69124 30.6573 3.48799 30.7656C3.47725 30.7705 3.46653 30.7775 3.4558 30.7846ZM1.09617 31.0833C1.09433 31.0874 1.0925 31.0914 1.09097 31.0958C1.1063 31.1067 1.12101 31.1188 1.13696 31.1288C1.7323 31.5019 2.32796 31.8751 2.9236 32.2482C3.9325 32.88 4.94172 33.5118 5.95092 34.1436C6.74155 34.6388 7.53186 35.1341 8.32219 35.6292C9.24034 36.204 10.1585 36.7789 11.0767 37.3534C11.3498 37.5243 11.6239 37.6942 11.8962 37.8672C11.9507 37.9018 11.9989 37.9061 12.0589 37.8806C12.2489 37.8 12.4409 37.7243 12.6319 37.6467C13.3786 37.3432 14.1252 37.0397 14.8719 36.7359C14.8772 36.7338 14.8827 36.7316 14.8878 36.7291C14.9185 36.716 14.9338 36.6811 14.9223 36.6497C14.9223 36.6494 14.9223 36.6494 14.9219 36.6491C14.7548 36.2022 14.5871 35.7555 14.4222 35.308C14.4035 35.257 14.3777 35.234 14.3241 35.2258C13.8373 35.1486 13.3556 35.0446 12.8772 34.9277C12.307 34.7886 11.7403 34.6338 11.1726 34.4857C10.4356 34.2935 9.71123 34.0602 8.9905 33.8156C8.11311 33.5175 7.25013 33.1807 6.39237 32.8303C5.61002 32.5106 4.85097 32.1402 4.10264 31.7481C3.70504 31.5396 3.3114 31.3229 2.91625 31.1095C2.88743 31.0939 2.85861 31.0846 2.82459 31.0846C2.30587 31.0843 1.78748 31.0831 1.26877 31.082C1.21114 31.0817 1.1535 31.0826 1.09617 31.0833ZM14.9479 25.0754C14.9599 25.0442 14.9451 25.009 14.9142 24.9957C14.9111 24.9945 14.908 24.9932 14.905 24.9918C13.9666 24.6054 13.0282 24.2195 12.0908 23.8314C12.0273 23.8051 11.9777 23.8105 11.9218 23.8453C11.5298 24.0899 11.1371 24.3333 10.7444 24.5767C9.92429 25.085 9.10392 25.5932 8.28357 26.1015C7.49447 26.5904 6.70507 27.0791 5.91597 27.568C5.13608 28.0516 4.35648 28.5356 3.5769 29.0193C2.76235 29.5243 1.94782 30.0292 1.13327 30.5341C1.11917 30.5427 1.10629 30.5534 1.0928 30.5629C1.11733 30.5745 1.14002 30.5758 1.1624 30.5758C1.70562 30.5776 2.24916 30.5792 2.7924 30.5819C2.84604 30.5823 2.89907 30.5691 2.9466 30.544C3.3948 30.3052 3.84145 30.0635 4.29302 29.8315C5.06771 29.4332 5.85528 29.0626 6.66859 28.749C7.10575 28.5804 7.54076 28.4054 7.98068 28.244C8.41846 28.0834 8.85991 27.9318 9.30227 27.7833C10.1386 27.5029 10.9878 27.2658 11.8421 27.0473C12.6818 26.8323 13.524 26.6273 14.3808 26.4884C14.3817 26.4884 14.3826 26.488 14.3836 26.4877C14.4041 26.4839 14.4209 26.4684 14.4284 26.4488C14.6012 25.9912 14.7738 25.535 14.9479 25.0754Z" fill="white"/>
<path d="M9.19188 23.6401C10.2931 23.6401 11.1858 22.7473 11.1858 21.6462C11.1858 20.545 10.2931 19.6523 9.19188 19.6523C8.09069 19.6523 7.198 20.545 7.198 21.6462C7.198 22.7473 8.09069 23.6401 9.19188 23.6401Z" fill="white"/>
<path d="M9.19186 23.1477C10.0125 23.1477 10.6778 22.4823 10.6778 21.6618C10.6778 20.8411 10.0125 20.1758 9.19186 20.1758C8.37121 20.1758 7.70593 20.8411 7.70593 21.6618C7.70593 22.4823 8.37121 23.1477 9.19186 23.1477Z" fill="#C19D62"/>
<path d="M52.7684 23.6401C53.8697 23.6401 54.7623 22.7473 54.7623 21.6462C54.7623 20.545 53.8697 19.6523 52.7684 19.6523C51.6672 19.6523 50.7745 20.545 50.7745 21.6462C50.7745 22.7473 51.6672 23.6401 52.7684 23.6401Z" fill="white"/>
<path d="M52.7683 23.1477C53.589 23.1477 54.2544 22.4823 54.2544 21.6618C54.2544 20.8411 53.589 20.1758 52.7683 20.1758C51.9478 20.1758 51.2825 20.8411 51.2825 21.6618C51.2825 22.4823 51.9478 23.1477 52.7683 23.1477Z" fill="#C19D62"/>
<path d="M9.19188 41.6587C10.2931 41.6587 11.1858 40.766 11.1858 39.6649C11.1858 38.5636 10.2931 37.6709 9.19188 37.6709C8.09069 37.6709 7.198 38.5636 7.198 39.6649C7.198 40.766 8.09069 41.6587 9.19188 41.6587Z" fill="white"/>
<path d="M9.19186 41.1662C10.0125 41.1662 10.6778 40.5009 10.6778 39.6804C10.6778 38.8597 10.0125 38.1943 9.19186 38.1943C8.37121 38.1943 7.70593 38.8597 7.70593 39.6804C7.70593 40.5009 8.37121 41.1662 9.19186 41.1662Z" fill="#C19D62"/>
<path d="M52.7684 41.6587C53.8697 41.6587 54.7623 40.766 54.7623 39.6649C54.7623 38.5636 53.8697 37.6709 52.7684 37.6709C51.6672 37.6709 50.7745 38.5636 50.7745 39.6649C50.7745 40.766 51.6672 41.6587 52.7684 41.6587Z" fill="white"/>
<path d="M52.7683 41.1662C53.589 41.1662 54.2544 40.5009 54.2544 39.6804C54.2544 38.8597 53.589 38.1943 52.7683 38.1943C51.9478 38.1943 51.2825 38.8597 51.2825 39.6804C51.2825 40.5009 51.9478 41.1662 52.7683 41.1662Z" fill="#C19D62"/>
<path d="M39.9894 10.9126C41.0907 10.9126 41.9834 10.0199 41.9834 8.9187C41.9834 7.8175 41.0907 6.9248 39.9894 6.9248C38.8883 6.9248 37.9956 7.8175 37.9956 8.9187C37.9956 10.0199 38.8883 10.9126 39.9894 10.9126Z" fill="white"/>
<path d="M39.9738 10.4044C40.7944 10.4044 41.4597 9.73918 41.4597 8.91853C41.4597 8.09788 40.7944 7.43262 39.9738 7.43262C39.1531 7.43262 38.4878 8.09788 38.4878 8.91853C38.4878 9.73918 39.1531 10.4044 39.9738 10.4044Z" fill="#C19D62"/>
<path d="M39.9894 54.396C41.0907 54.396 41.9834 53.5033 41.9834 52.402C41.9834 51.3009 41.0907 50.4082 39.9894 50.4082C38.8883 50.4082 37.9956 51.3009 37.9956 52.402C37.9956 53.5033 38.8883 54.396 39.9894 54.396Z" fill="white"/>
<path d="M39.9738 53.8879C40.7944 53.8879 41.4597 53.2226 41.4597 52.402C41.4597 51.5813 40.7944 50.916 39.9738 50.916C39.1531 50.916 38.4878 51.5813 38.4878 52.402C38.4878 53.2226 39.1531 53.8879 39.9738 53.8879Z" fill="#C19D62"/>
<path d="M21.9245 10.9126C23.0257 10.9126 23.9183 10.0199 23.9183 8.9187C23.9183 7.8175 23.0257 6.9248 21.9245 6.9248C20.8232 6.9248 19.9305 7.8175 19.9305 8.9187C19.9305 10.0199 20.8232 10.9126 21.9245 10.9126Z" fill="white"/>
<path d="M21.9088 10.4044C22.7295 10.4044 23.3947 9.73918 23.3947 8.91853C23.3947 8.09788 22.7295 7.43262 21.9088 7.43262C21.0881 7.43262 20.423 8.09788 20.423 8.91853C20.423 9.73918 21.0881 10.4044 21.9088 10.4044Z" fill="#C19D62"/>
<path d="M21.9245 54.396C23.0257 54.396 23.9183 53.5033 23.9183 52.402C23.9183 51.3009 23.0257 50.4082 21.9245 50.4082C20.8232 50.4082 19.9305 51.3009 19.9305 52.402C19.9305 53.5033 20.8232 54.396 21.9245 54.396Z" fill="white"/>
<path d="M21.9088 53.8879C22.7295 53.8879 23.3947 53.2226 23.3947 52.402C23.3947 51.5813 22.7295 50.916 21.9088 50.916C21.0881 50.916 20.423 51.5813 20.423 52.402C20.423 53.2226 21.0881 53.8879 21.9088 53.8879Z" fill="#C19D62"/>
<path d="M12.3066 30.9368C12.4308 30.8129 12.5423 30.7009 12.6549 30.5897C12.6944 30.5508 12.7371 30.5148 12.7763 30.4756C14.3913 28.8622 16.0066 27.2484 17.6206 25.6341C17.7754 25.4793 17.7473 25.5459 17.7473 25.3232C17.7476 22.8912 17.7466 20.4595 17.7466 18.0276C17.7466 17.9687 17.7408 17.9093 17.757 17.843C17.8067 17.8413 17.8527 17.8376 17.8986 17.8376C18.7883 17.8367 19.6776 17.8364 20.5673 17.8355C21.9443 17.8342 23.3215 17.833 24.6986 17.8317C24.7114 17.8317 24.7242 17.8302 24.7369 17.8321C24.8294 17.8452 24.8969 17.806 24.9653 17.7443C26.8835 16.0154 28.8032 14.2885 30.7229 12.561C30.7639 12.5239 30.8056 12.4877 30.8515 12.4473C30.8779 12.4684 30.9015 12.4856 30.9227 12.5052C30.9539 12.5343 30.9834 12.5653 31.0135 12.5956C32.7069 14.294 34.4001 15.9927 36.0938 17.691C36.226 17.8234 36.1812 17.806 36.3718 17.8066C37.9587 17.8124 39.5451 17.8165 41.1318 17.8225C42.0215 17.8259 42.9108 17.8321 43.8005 17.837C43.8422 17.8373 43.8842 17.8404 43.932 17.8424C43.9357 17.8741 43.9403 17.8983 43.9412 17.9229C43.9428 17.9653 43.9419 18.0083 43.9419 18.0509C43.9419 20.5083 43.9415 22.9658 43.9422 25.4236C43.9422 25.6182 43.9192 25.5627 44.0577 25.6997C45.7681 27.3934 47.479 29.0863 49.1896 30.7797C49.2288 30.8188 49.2677 30.8583 49.3076 30.8988C49.2938 30.9514 49.2515 30.9766 49.2197 31.0084C48.6642 31.5593 48.1077 32.1096 47.5519 32.6599C46.3913 33.8089 45.2303 34.9573 44.0703 36.1073C43.917 36.2589 43.9468 36.1934 43.9465 36.4055C43.9456 38.8629 43.9459 41.3204 43.9459 43.778C43.9459 43.8336 43.9459 43.8887 43.9459 43.95C43.9176 43.9565 43.8943 43.965 43.8703 43.9669C43.832 43.9697 43.7934 43.9678 43.7551 43.9678C41.4716 43.9666 39.1877 43.9656 36.9037 43.9644C36.8526 43.9644 36.8016 43.9644 36.7511 43.9644C35.7667 44.8654 34.786 45.7633 33.8056 46.6609C32.8256 47.5582 31.8458 48.456 30.8608 49.3571C30.8181 49.3207 30.7823 49.2914 30.748 49.2603C29.7283 48.3419 28.7086 47.4231 27.689 46.5046C26.7964 45.7005 25.904 44.8965 25.0112 44.0923C24.9953 44.0779 24.9797 44.0631 24.9638 44.0494C24.8493 43.951 24.8954 43.9644 24.7366 43.9644C22.5854 43.9641 20.4342 43.9641 18.283 43.9641C18.1335 43.9641 17.9836 43.9641 17.8339 43.9638C17.813 43.9638 17.7919 43.961 17.7732 43.9598C17.7408 43.9243 17.7517 43.8841 17.7517 43.8473C17.751 43.5524 17.7511 43.2575 17.751 42.9626C17.7507 40.4282 17.75 37.8938 17.7494 35.3595C17.7494 35.3102 17.7548 35.2595 17.7383 35.1976C17.6185 35.2788 17.5412 35.3865 17.448 35.4767C17.353 35.5686 17.2612 35.6636 17.1625 35.763C17.1369 35.7425 17.113 35.7261 17.0927 35.7062C16.9287 35.5437 16.7653 35.3806 16.6019 35.2175C15.2086 33.8294 13.8155 32.4413 12.4222 31.0532C12.386 31.0183 12.3508 30.9819 12.3066 30.9368ZM34.4138 24.1598C34.3752 24.1996 34.3497 24.2279 34.3225 24.2543C34.1897 24.3816 34.0568 24.508 33.9236 24.635C33.2557 25.2727 32.5877 25.9104 31.9196 26.5476C29.7238 28.6433 27.5278 30.7386 25.3323 32.835C25.1958 32.9652 25.2185 32.9171 25.2185 33.0986C25.2178 36.5431 25.2181 39.988 25.2181 43.4325C25.2181 43.467 25.2197 43.5009 25.2181 43.5352C25.2163 43.5772 25.2328 43.6092 25.2645 43.6354C25.2875 43.6544 25.309 43.6753 25.3314 43.6955C26.2396 44.5141 27.148 45.3326 28.0563 46.1508C28.952 46.9581 29.848 47.7649 30.744 48.5718C30.7783 48.6027 30.8135 48.6328 30.853 48.6677C30.8912 48.6356 30.9239 48.6092 30.9548 48.5806C32.7207 46.9641 34.4866 45.3474 36.252 43.7303C36.3991 43.5956 36.3755 43.6484 36.3755 43.4464C36.3761 40.7241 36.3758 38.0015 36.3758 35.2792C36.3758 35.2365 36.3764 35.1936 36.3746 35.1511C36.374 35.136 36.3667 35.1216 36.3593 35.0965C36.2483 35.1805 36.1661 35.2785 36.0751 35.3669C35.9859 35.4531 35.8994 35.5419 35.8118 35.6296C35.721 35.7204 35.6303 35.8107 35.5395 35.9015C35.4489 35.9922 35.3581 36.0827 35.2673 36.1734C35.1797 36.2611 35.092 36.3488 35.0042 36.4365C34.9136 36.5272 34.8228 36.6177 34.7321 36.7083C34.6413 36.7992 34.5505 36.8895 34.4598 36.9803C34.3721 37.068 34.2846 37.1556 34.1968 37.2433C34.106 37.3341 34.0154 37.4245 33.9246 37.5153C33.8339 37.606 33.7431 37.6965 33.6523 37.7873C33.5647 37.8748 33.477 37.9626 33.3893 38.0503C33.2986 38.1409 33.2078 38.2314 33.1171 38.3221C33.0263 38.4129 32.9357 38.5033 32.8449 38.5941C32.7541 38.6849 32.6634 38.7752 32.5726 38.866C32.485 38.9536 32.3973 39.0413 32.3096 39.129C32.2189 39.2197 32.1281 39.3102 32.0373 39.401C31.9466 39.4917 31.8558 39.5822 31.7652 39.6728C31.6775 39.7605 31.5897 39.8483 31.5022 39.9358C31.4114 40.0266 31.3207 40.1171 31.2299 40.2078C31.1391 40.2986 31.0484 40.389 30.9576 40.4798C30.87 40.5673 30.7823 40.6551 30.6946 40.7428C30.6039 40.8334 30.5131 40.9239 30.4223 41.0148C30.3317 41.1054 30.2408 41.1959 30.1502 41.2866C30.0625 41.3743 29.9757 41.4629 29.8869 41.5493C29.7958 41.6379 29.7117 41.7348 29.6072 41.8188C29.5851 41.7998 29.5652 41.7842 29.5471 41.767C29.0781 41.3173 28.6097 40.867 28.1403 40.4175C27.7077 40.0039 27.2737 39.5916 26.8412 39.1783C26.808 39.1468 26.7675 39.1207 26.7473 39.0696C26.7774 39.0373 26.8052 39.0055 26.8347 38.9757C26.9794 38.83 27.1247 38.6855 27.2694 38.5402C30.2964 35.5088 33.3235 32.4778 36.3497 29.4463C36.5059 29.2898 36.4773 29.3579 36.4773 29.136C36.4779 25.7555 36.4779 22.3751 36.4779 18.9942C36.4779 18.9727 36.4758 18.9513 36.4782 18.9301C36.4878 18.8477 36.4589 18.7857 36.3985 18.7263C36.1791 18.5105 35.9663 18.288 35.7493 18.0699C34.2884 16.6043 32.8274 15.1392 31.3666 13.6738C31.2158 13.5224 31.0649 13.3709 30.9134 13.2201C30.8903 13.1971 30.8629 13.1781 30.8396 13.1591C30.7477 13.2213 25.271 18.1473 25.1829 18.2466C25.1829 18.2946 25.1829 18.3499 25.1829 18.4053C25.1829 21.3073 25.1829 24.2092 25.1829 27.1111C25.1829 27.1494 25.1826 27.188 25.1836 27.2263C25.1842 27.2466 25.1808 27.2702 25.2188 27.2795C25.3718 27.1261 25.5284 26.9692 25.685 26.812C25.8421 26.6546 25.999 26.4971 26.1559 26.3399C26.3159 26.1795 26.4761 26.0188 26.6361 25.8585C26.793 25.7012 26.9499 25.5437 27.1069 25.3863C27.2639 25.2291 27.4208 25.0716 27.5778 24.9142C27.7347 24.757 27.8917 24.5995 28.0487 24.4422C28.2087 24.2818 28.3687 24.1212 28.5287 23.9609C28.6856 23.8036 28.8427 23.646 28.9999 23.4887C29.1568 23.3315 29.3139 23.174 29.4711 23.0166C29.628 22.8594 29.7851 22.7019 29.9423 22.5445C30.1023 22.3842 30.2623 22.2239 30.4223 22.0632C30.5794 21.906 30.7363 21.7483 30.8935 21.5911C31.0497 21.4351 31.1995 21.2724 31.3697 21.119C32.3856 22.1329 33.3951 23.1417 34.4138 24.1598ZM36.9049 43.4534C36.9612 43.4543 37.016 43.4561 37.0711 43.4561C39.0169 43.4571 40.963 43.458 42.9088 43.4589C43.054 43.4589 43.1996 43.4599 43.3449 43.4586C43.3732 43.4583 43.4013 43.4506 43.4373 43.4452C43.4373 43.3749 43.4373 43.3114 43.4373 43.2477C43.4358 37.3114 43.4339 31.3751 43.4327 25.4388C43.432 23.1482 43.4327 20.8572 43.4327 18.5666C43.4327 18.5196 43.4342 18.4725 43.4317 18.4256C43.4305 18.4013 43.4222 18.3774 43.4155 18.3456C43.3729 18.3456 43.3349 18.3456 43.2969 18.3456C41.4324 18.3375 39.5675 18.3297 37.7029 18.3216C37.5019 18.3207 37.3011 18.3201 37.1 18.3201C37.0668 18.3201 37.0341 18.3247 36.9976 18.3275C36.9814 18.3928 36.9877 18.4523 36.9877 18.5111C36.9874 22.131 36.9874 25.751 36.9868 29.371C36.9868 29.5575 37.0138 29.5023 36.8787 29.6378C35.9426 30.5761 35.0061 31.5138 34.0696 32.4518C34.0365 32.4852 34.0027 32.5179 33.9706 32.5524C33.9571 32.5667 33.9371 32.5808 33.9556 32.6158C34.0005 32.6168 34.0509 32.6182 34.1014 32.6182C34.9653 32.6185 35.8293 32.6182 36.6932 32.6182C36.7318 32.6182 36.7704 32.6161 36.8084 32.6194C36.832 32.6212 36.8554 32.6314 36.8744 32.6367C36.8781 32.6486 36.8796 32.6526 36.8805 32.6569C36.8813 32.6608 36.8822 32.6651 36.8829 32.6694C36.8835 32.6738 36.8835 32.6781 36.8838 32.6822C36.8841 32.6866 36.8841 32.6909 36.8841 32.6952C36.8841 32.6994 36.8844 32.7037 36.8844 32.708C36.8844 32.7124 36.8844 32.7167 36.8844 32.7209C36.8844 32.7252 36.8844 32.7295 36.8844 32.7338C36.8844 32.7382 36.8844 32.7423 36.8844 32.7466C36.8844 32.751 36.8844 32.7553 36.8844 32.7596C36.8844 36.2685 36.8844 39.7771 36.8844 43.2859C36.8844 43.2989 36.8844 43.3117 36.8844 43.3244C36.8844 43.3286 36.8844 43.3329 36.8844 43.3372C36.8844 43.3415 36.8844 43.3459 36.8844 43.35C36.8844 43.3544 36.8844 43.3587 36.8844 43.363C36.8844 43.3672 36.8844 43.3715 36.8847 43.3758C36.8847 43.3802 36.8847 43.3845 36.885 43.3887C36.8853 43.393 36.8853 43.3973 36.8859 43.4016C36.8863 43.406 36.8866 43.4101 36.8875 43.4141C36.8884 43.4185 36.8897 43.4225 36.8912 43.4265C36.893 43.4294 36.8949 43.4328 36.9049 43.4534ZM18.262 43.4427C18.3312 43.4623 18.3866 43.4558 18.4416 43.4558C20.4686 43.4561 22.4958 43.4561 24.5229 43.4561C24.5571 43.4561 24.5916 43.4574 24.6256 43.4555C24.6501 43.454 24.6741 43.448 24.6977 43.4436C24.7176 43.3789 24.709 43.3188 24.709 43.26C24.7096 39.7939 24.7093 36.328 24.7099 32.8617C24.7099 32.7025 24.6887 32.7442 24.8076 32.6305C25.8714 31.6149 26.9355 30.5998 27.9996 29.5845C28.0523 29.5341 28.1048 29.4843 28.1565 29.433C28.1707 29.4192 28.1907 29.4049 28.1695 29.3738C28.007 29.3738 27.8405 29.3738 27.6737 29.3738C27.5069 29.3738 27.3402 29.3738 27.1734 29.3738C27.0067 29.3738 26.8399 29.3738 26.6731 29.3738C26.5107 29.3738 26.3482 29.3738 26.1857 29.3738C26.0189 29.3738 25.8521 29.3738 25.6853 29.3738C25.5185 29.3738 25.3519 29.3751 25.1851 29.3735C25.0195 29.372 24.8537 29.3809 24.6801 29.3669C24.6784 29.3138 24.6753 29.2677 24.6753 29.2219C24.675 28.709 24.675 28.1961 24.675 27.6832C24.675 24.6402 24.675 21.5973 24.675 18.5544C24.675 18.5117 24.6762 18.4688 24.6741 18.4262C24.6728 18.4016 24.6654 18.3774 24.6614 18.355C24.6016 18.3341 24.5456 18.3428 24.4907 18.3428C22.8015 18.3434 21.112 18.3449 19.4229 18.3462C19.0722 18.3465 18.7215 18.3465 18.3707 18.3477C18.334 18.3477 18.2932 18.3363 18.2622 18.3692C18.262 26.7239 18.262 35.0784 18.262 43.4427ZM36.37 33.1341C36.3086 33.1317 36.2625 33.1283 36.2161 33.1283C35.3182 33.1281 34.42 33.1281 33.5221 33.1281C33.5049 33.1281 33.4876 33.1295 33.4708 33.1281C33.4147 33.1226 33.3712 33.1443 33.3357 33.1866C33.3246 33.1998 33.3114 33.2107 33.2995 33.2228C31.3843 35.1406 29.469 37.0585 27.5539 38.9763C27.5272 39.003 27.5023 39.0319 27.4724 39.0643C27.4978 39.0926 27.5187 39.1188 27.5425 39.1419C28.2078 39.7761 28.873 40.4104 29.5389 41.0441C29.5598 41.064 29.5843 41.0796 29.6121 41.1011C29.656 41.0581 29.6955 41.0199 29.7344 40.9809C31.9056 38.8114 34.077 36.6416 36.248 34.4717C36.2662 34.4537 36.2824 34.4331 36.3026 34.4177C36.3624 34.3718 36.378 34.3121 36.3774 34.2384C36.3743 33.9138 36.3761 33.5888 36.3758 33.2642C36.3755 33.2262 36.3724 33.1885 36.37 33.1341ZM31.3693 21.8385C31.321 21.8861 31.2841 21.921 31.248 21.9571C29.4095 23.7999 27.571 25.643 25.7326 27.4858C25.5695 27.6492 25.4076 27.8135 25.2427 27.9751C25.1998 28.0171 25.1817 28.0617 25.1823 28.1215C25.1848 28.3352 25.1829 28.549 25.1839 28.7626C25.1839 28.7914 25.1894 28.8202 25.1927 28.8515C25.247 28.8714 25.2985 28.864 25.3488 28.864C26.4177 28.8643 27.4867 28.8653 28.5558 28.8637C28.7964 28.8634 28.7179 28.8969 28.8914 28.7317C30.4571 27.2393 32.0214 25.7457 33.5859 24.2524C33.6164 24.2229 33.6459 24.1927 33.6787 24.1598C33.6634 24.1392 33.6526 24.1209 33.6382 24.1065C32.8863 23.3545 32.1337 22.6026 31.3693 21.8385ZM17.1482 35.0441C17.189 35.0052 17.2202 34.9769 17.2497 34.9471C17.3785 34.816 17.5074 34.685 17.635 34.5527C17.7693 34.4132 17.7491 34.4705 17.7491 34.2745C17.7491 31.6548 17.7485 29.0351 17.7479 26.4152C17.7479 26.3809 17.7488 26.3468 17.7466 26.3128C17.7457 26.2982 17.7386 26.2836 17.7349 26.2705C17.7221 26.2717 17.7181 26.2714 17.7141 26.2727C17.7102 26.2736 17.7056 26.2751 17.7028 26.2776C17.681 26.2978 17.6589 26.3181 17.6378 26.3392C16.1111 27.8656 14.5846 29.3922 13.0583 30.919C13.0555 30.9216 13.0534 30.926 13.0521 30.93C13.0509 30.934 13.0512 30.9383 13.0507 30.9499C13.0571 30.9585 13.0654 30.9732 13.0767 30.9848C14.4296 32.3343 15.7828 33.6832 17.1482 35.0441ZM43.9578 35.4793C44.0175 35.4524 44.0483 35.4107 44.0838 35.3755C45.5482 33.9263 47.0124 32.4768 48.4765 31.0277C48.4977 31.0066 48.5201 30.9866 48.54 30.9643C48.5559 30.9459 48.5689 30.925 48.5848 30.9026C48.548 30.8649 48.5158 30.831 48.4824 30.7982C47.0152 29.346 45.5479 27.8935 44.0804 26.4413C44.0561 26.4174 44.032 26.3931 44.0072 26.3695C43.9919 26.3548 43.9764 26.3389 43.9528 26.3555C43.9403 26.4937 43.9431 35.3672 43.9578 35.4793Z" fill="white"/>
</svg>
